<?xml version="1.0" encoding="UTF-8"?>
<svg width="1200pt" height="1200pt" version="1.1" viewBox="0 0 1200 1200" xmlns="http://www.w3.org/2000/svg">
 <path d="m656.44 913.84c-7.9922 8.0742-17.344 14.684-27.621 19.527-2.1914 0.96875-3.9102 2.7734-4.7656 5.0117-0.85938 2.2383-0.78906 4.7266 0.19531 6.9141 0.98047 2.1836 2.7969 3.8906 5.043 4.7344 2.2422 0.83984 4.7305 0.75391 6.9102-0.24609 12.207-5.707 23.316-13.516 32.82-23.07 8.375-8.2539-4.1172-21.066-12.582-12.871z"/>
 <path d="m405.93 489.19-12.391 3.8398c-9.7617 2.9141-7.375 17.762 2.668 17.598 1.7812 0.25391 13.152-3.8008 15.059-4.2539 11.234-3.6875 6.0234-20.496-5.3359-17.184z"/>
 <path d="m632.67 609.04c12.855-1.2188 11.367-20.367-1.5195-19.586-12.852 1.2188-11.363 20.367 1.5195 19.586z"/>
 <path d="m29.102 899.71c23.699 20.93 85.238 79.328 135.2 76.742 15.508 0 30.73 4.1758 44.066 12.086 43.609 25.883 124.87 73.453 179.14 101.2h0.003907c9.1172 4.6562 19.668 5.6602 29.496 2.8047 9.832-2.8555 18.207-9.3477 23.414-18.164 12.801-21.707 50.039-90.961 74.992-137.56 11.848 17.211 26.398 33.043 42.719 42.762v0.003907c5.6562 26.914 21.32 50.68 43.82 66.496l51.527 85.125v-0.003906c1.6523 2.6602 4.5547 4.2773 7.6836 4.2812 3.1289 0.003906 6.0391-1.6055 7.6992-4.2578 0.63281-1.0352 64.055-104.55 143.98-186.82 3.1484-3.2383 3.4062-8.3125 0.60156-11.855-0.33984-0.42969-31.246-39.727-50.145-82.801 14.809-26.629 32.355-51.641 52.359-74.621 16.801-19.004 43.938-67.965 52.711-133.18 4-2.0391 9.1211-4.0781 9.1211-4.0781 34.645 60.027 97.848 55.301 135.16 119.15v-0.003906c1.7852 13.625 2.3828 27.383 1.7852 41.113-0.34766 6.5039 0.51172 13.012 2.543 19.199l-22.984 29.926c-17.629-17.961-37.941-11.199-49.383-0.42188-9.3828-23.457-44.441-28.648-57.289-3.6016-13.645-13.297-35.551-16.844-48.141-1.3164v0.003907c-5.6719-3.7695-12.609-5.1406-19.289-3.8086-6.6797 1.3281-12.559 5.25-16.355 10.906-17.586 28.676 33.102 88.559 43.57 99.727v-0.003907c5.6797 6.0195 13.582 9.4336 21.855 9.4492 8.2734 0.015625 16.191-3.375 21.891-9.3711 5.5039-6.1719 12.809-10.461 20.879-12.258-29.039 55.441 33.77 97.949 74.77 53.785 0.84375 8.1719-0.88281 16.402-4.9375 23.547-3.8555 7.3203-4.5312 15.906-1.8672 23.738 2.6641 7.832 8.4336 14.227 15.953 17.676 14.91 6.9609 87.926 34.84 108.43 9.3242 4.1406-5.4062 5.9727-12.23 5.0898-18.984-0.88281-6.7539-4.4062-12.883-9.7969-17.043 10.684-16.938 0.38281-36.332-16.723-45.121 19.68-20.16 3.5703-51.773-21.668-53.172 8.6406-17.094 1.9648-39.395-17.973-46.262l14.934-21.805h0.003906c6.2852 5.3438 14.547 7.7656 22.727 6.6641 8.1758-1.1016 15.5-5.6211 20.152-12.438l17.039-25.348c11.211-16.254 8.7031-37.148-2.4922-52.734l43.922-64.137v0.003906c5.9648-1.6523 11.258-5.1484 15.117-9.9844v-0.015625c10.832-13.484 9.9844-35.66-5.9062-46.441-20.984-15.863-52.734 1.75-50.438 27.926l-32.926 42.863c-35.355-56.691-87.742-135.5-144.64-203.48-5.2695-32.992-22.297-54.645-49.57-63.152 74.605-131.73 193.28-76.855 229.12-152.37 23.977-51.965-5.6719-81.031-25.508-108.22-14.945-19.641-3.7734-45.758 14.855-51.84 23.281-5.0391 42.633-14.398 52.363-30.973 13.711-21.98 7.4297-46.387 7.1523-47.414l-0.003906-0.003906c-0.94531-3.5508-3.957-6.1719-7.6055-6.6172-19.68 1.2422-1.4961 30.066-67.609 31.082-9.5703 0.64844-20.418 1.3789-32.879 2.8789-73.109 7.1602-71.555 81.602-60.254 114.38l-0.003906 0.003906c6.0898 20.027 8.4219 41.008 6.875 61.883-10.098 29.594-32.102 33.602-41.941 33.84-9.6562-0.27734-19.262-1.4844-28.684-3.6016-56.879-13.113-137.11 5.9688-176.93 96.77-14.516 32.574-41.023 59.305-72.395 77.113-19.988 1.3477-31.695 6.1016-34.836 7.5469-19.297 6.0664-38.211 13.285-56.641 21.613 1.1289-14.258-0.72266-28.598-5.4375-42.105 30.285-10.055 23.027-49.441 17.328-72.898 37.242 1.3984 67.488-18.75 71.348-50.441 58.148-10.453 68.996-44.855 70.938-59.777 38.582-11.738 51.727-65.242 44.355-91.18l0.003906 0.003907c-0.52734-2.4531-2.0508-4.5781-4.207-5.8555-2.1602-1.2812-4.75-1.6055-7.1562-0.89062-12.48 3.7109-25.68 7.3867-39.469 11.02 9.4336-20.848 2.4609-44.945 2.4609-44.945-0.78906-7.9805-5.7891-13.68-13.184-11.164-122.06 44.984-196.1 48.266-256.08 157.44-48.266-3.1797-126.23 8.8438-170.03 106-1.1055 2.5078-1.0156 5.3789 0.24219 7.8125 1.2617 2.4336 3.5547 4.168 6.2383 4.7148l34.59 6.8008h-0.003907c-2.8906 22.633-3.4531 45.504-1.6797 68.254 0.48438 6.3398-1.082 12.668-4.4688 18.047l-16.816 27.516c-1.457 2.2734-1.8281 5.0742-1.0117 7.6445 0.81641 2.5742 2.7344 4.6484 5.2305 5.668l27.926 11.039 16.848 66.688c0.625 2.4102 2.2148 4.4531 4.3945 5.6562 2.1797 1.1992 4.7578 1.4492 7.125 0.69141 25.328-6.7695 30.652-17.52 65.961-4.6992-21.023 34.855-31.664 76.617-33.457 116.67h-0.003906c-19.84 33.07-25.586 72.719-15.945 110.06 2.0508 8.0586-1.3242 16.988-4.5156 23.059-13.359 25.453-18.414 43.199-27.289 66.848-13.16-6.5586-40.246-16.914-87.957-22.875-14.547-1.8203-50.543-8.6406-70.383-17.871-0.80469-20.031-0.5625-39.184-18.051-52.691l-51.234-40.895c-9.7695-5.8242-14.16 1.7266-20.512 14.078-10.734-8.4453-21.039-16.047-30.75-22.66-21.184-14.547-36.559-1.5312-42.066 15.418-16 2.4375-24.719 17.547-22.246 33.996-12.234 17.535-11.562 34.676 2.0586 47.484zm1067.4-665.04c0.63281 0.90234 1.2461 1.7695 1.8633 2.7031 11.617 17.164 19.398 36.094 5.5703 64.293-9.5234 19.48-23.859 27.102-45.395 33.617 26.359-29.691 32.16-71.328 9.7969-106-3.5391-5.5938-6.4453-11.57-8.6602-17.809 0 0 18.93-1.8164 36.824 23.195zm-78.66-27.012c-30.164-129.78 88.895-73.5 133.01-108.41-13.328 43.305-69.84 20.586-103.05 68.512-11.746 17.566-13.754 41.156 5.2578 71.039 29.848 44.43-4.4727 100.58-52.523 112.74 17.43-27.938 36.871-77.5 17.312-143.88zm-223.24 729.79c-24.516 26.004-47.672 53.254-69.375 81.648-0.14844-23.086-7.3672-37.859-7.8086-38.746-5.4648-10.434-21.121-2.6172-16.109 8.0312 0.50391 1.0352 12.121 25.508 1.4531 60.773-18.719 25.801-33.121 47.488-41.375 60.285l-44.977-74.305c-23.793-18.121-35.23-37.441-39-52.441h0.003907c8.7031-2.3828 16.559-7.1719 22.656-13.82 5.7266 16.781 16.551 31.359 30.961 41.695 9.6523 6.75 20.043-7.4727 10.535-14.594v-0.003907c-12.93-9.3125-22.172-22.875-26.105-38.316-6.7188-24.746-26.992-19.109-30.719-50-1.6172-11.68-19.125-9.582-17.867 2.2109 1.0273 8.4883 5.5781 29.656 24.258 42.055-10.527 12.719-18.781 13.695-21.402 13.621h0.003906c-7.6289-4.7969-14.719-10.406-21.145-16.727-9.5625-16.465 1.5312-34.281 2.0859-35.148 6.3711-9.8672-8.5742-19.641-15.066-9.8398h0.003906c-3.7031 6.0508-6.332 12.695-7.7734 19.641-8.832-13.594-16.047-28.172-21.492-43.441 15.512 4.6133 31.836 5.8164 47.855 3.5273l-0.074219 0.023437v0.003907c19.906-1.9375 39.293-7.4883 57.207-16.371 13.133 0.37109 26.035 3.5469 37.848 9.3047 10.734 4.7617 18.227-11.219 7.5-16.363-6.8164-3.1484-13.895-5.6836-21.16-7.5742 22.98-16.953 44.699-43.109 55.629-83.453 5.2578-16.777 11.582-33.207 18.926-49.184 8.9922 0.43359 22.738 0.96094 29.219-0.26172v0.003906c3.8477 31.109 3.5156 62.594-0.99219 93.617-5.9062 41.285 45.508 107.73 56.297 124.15zm-300.43-122.89c57.48 22.504 112.02 4.2891 156.43-49.738-30.375 132.87-192.38 119.65-156.41 49.754zm383.64 121.88c-2.2656 2.418-5.4297 3.793-8.7422 3.7969-3.3164 0.003906-6.4844-1.3594-8.7578-3.7734-10.23-10.977-34.875-39.934-42.758-71.691l0.003906-0.003906c-0.5-2-0.125-4.1172 1.0273-5.8242 1.6289-2.4219 4.4922-3.6992 7.3828-3.2969 2.8867 0.39844 5.293 2.4102 6.2031 5.1836 5.5625 18.539 18.238 44.641 35.691 57.145 3.2578 2.3164 7.6484 2.2188 10.801-0.23828 1.3281-1.0352 30.668-23.34 66.109-8.6094v-0.003906c-6.3125 1.9883-12.215 5.0898-17.426 9.1641-18.5-2.5195-37.043 4.2773-49.535 18.152zm76.707 53.281c-28.133 7-41.715-25.781-24.414-48.633 11.258-15.688 30.801-20.996 43.578-11.828 22.328 16.793 5.5352 55.453-19.164 60.465zm129.23 51.602v-0.003906c2.918-0.023438 5.5898 1.6133 6.8945 4.2188 1.3047 2.6094 1.0156 5.7305-0.75 8.0508-1.25 1.6367-3.1367 2.668-5.1914 2.8359-32.598 2.7188-67.934-11.355-81.602-17.52-21.121-11.984 15.332-28.281-4.1875-69.16 2.2188-6.25 3.2812-12.852 3.1484-19.48 25.152 28.828 13.461 63.645 12.906 65.227l-0.003907-0.003906c-1.3477 3.7812-0.03125 8 3.2305 10.344 17.445 12.504 46.242 16.156 65.555 15.484zm-90.035-117.12 0.003907-0.003906c-5.7422-8.0312-14.18-13.727-23.773-16.051l56.641-73.727c3.4062 4.3398 13.441 12.238 17.656 16.016zm-56.996-375.46c75.375 92.547 141.4 201.43 167.11 245.46 2.3789 4.1094 3.5586 8.8047 3.4062 13.551-0.15234 4.75-1.6328 9.3594-4.2734 13.309l-17.039 25.348c-1.75 2.5742-4.5117 4.2852-7.5977 4.7031-3.0859 0.42188-6.2031-0.48828-8.5781-2.5039l-25.633-21.977c-7.9844-6.8516-12.301-17.047-11.668-27.547 0.69922-15.477-0.03125-30.98-2.1875-46.32-39.852-78.562-118.22-68.758-149.38-147.7-5.3945-10.422-21.254-2.6719-16.098 8.0625l4.3555 8.6953c-13.598 5.4297-37.941 19.484-80.895 54.098-19.934 16.078-47.258 24-69.406 25.586 30.414-60.645 87.5-143.14 179.25-163.68 14.105-3.3555 29.336-0.98437 38.633 10.914zm-255.02-20.797h0.003907c-8.5195 7.2969-16.574 15.121-24.117 23.426-7.7578 8.7422 5.1758 20.828 13.312 12.117 25.16-27.641 53.945-47.691 85.555-59.598 7.7188-8.2734 144.63-69.105 164.48 14.984-48.645-7.9023-190.2 53.102-239.25 164.27-54.258 105.57-119.09 149.48-195.52 107.04-1.832-2.5742-38.98-55.496-11.48-82.688 19.375-18.617 26.848 6.9375 28.754 14.641 5.2578 30.742 47.629 42.508 67.59 18.094 16.91-18.719 28.297-63.973 39.09-83.258 4.9375-10.715-10.883-18.406-16.219-7.8125-6.2383 12.961-13.266 29.984-20.879 50.621-3.4766 10.391-8.75 20.09-15.586 28.656-9.5586 11.844-30.684 7.8633-35.312-6.6367-2.5-7.4883-3.3555-15.43-2.5039-23.277 27.078-73.613 60.59-140.71 162.08-170.57zm-18.395-294.48c42.281-9.0586 80.84-18.582 114.8-28.352 0.79688 15.812-2.1758 46.523-34.215 60.773h0.003907c-3.3594 0.85938-6.8281 1.2109-10.289 1.0391-56.398-2.7773-93.672 15.273-95.23 16.043-8.4883 4.0156-5.2617 17.281 4 17.066 6.8086-0.51953 33.359-17.293 89.387-15.164-2.8555 12.035-14.566 34.406-61.801 40.953-24.238 1.1172-37.543 3.4922-44.438 5.293-10.098 2.543-8.0156 17.84 2.2695 17.711l-0.003906-0.003906c10.824-2.2734 21.793-3.7539 32.832-4.4336-6.9609 24.973-30.902 32.355-61.664 30.238 5.2812-12.465 6.4219-29.027-9.0156-42.414-7.6094-5.7695-17.344-7.9609-26.691-6.0117-8.9883 0.60547-34.031 22.918-18.793 32.258 2.1289 1.082 4.5977 1.2773 6.8672 0.53906 2.2695-0.74219 4.1523-2.3516 5.2383-4.4805 5.1133-11.41 14.453-13.512 21.949-8.3984 24.719 24.219-33.82 66.301-74.754 37.828-5.8594-3.8477-9.9688-9.8359-11.449-16.684-1.4844-6.8477-0.21484-14.004 3.5273-19.926 21.195-33.652 71.121-93.219 167.48-113.87zm-335.02 166.86c46.152-90.113 125.05-90.305 166.62-82.945-5.6992 7.3672-10.453 14.281-14.297 20.398-20.438 32.699 6.3906 68.191 41.039 72.594 0 0 33.965 7.4648 29.867 33.84zm60.793 213.31-15.602-61.77 0.003906-0.003906c-0.71094-2.8047-2.7266-5.1016-5.418-6.1641l-22.266-8.8047c8.418-13.793 20.855-30.402 18.453-47.539h-0.003907c-1.6445-21.109-1.1641-42.328 1.4414-63.344l63.391 12.461c2.3984 56.625 47.965 74.441 72.215 75.891 2.9336 0.17969 5.7734-1.0898 7.5938-3.4023 5.3477-6.7617 13.105-14.258 19.691-11.574 12.758 5.7617 0.79297 34.863-5.7773 38.488-18.055 14.469-30.918 0.035156-35.73 14.145-1.8672 6.4961-2.6172 18.961-9.457 22.508-25.227 16.355-57.055 28.539-88.535 39.109zm61.035-4.0625c12.914-5.6953 25.379-12.359 37.285-19.938 9.2227-5.6055 13.809-15.988 15.539-26.414h-0.003907c5.5195-0.24219 10.977-1.2578 16.207-3.0234 2.9297 26.879 14.562 41.652 22.848 48.93h0.003906c-12.496 19.082-22.875 39.465-30.961 60.789-16.352-37.773-40.23-53.875-60.906-60.344zm-377.67 205.26c2.5-1.0469 6.6055 1.3359 8.832 2.8516 11.641 7.9219 24.211 17.359 37.391 28.031l-0.003906-0.003907c0.09375 1.3984 0.32422 2.7852 0.68359 4.1367l-6.332 9.5195-46.477-35.742c1.4492-4.1289 3.6211-7.8398 5.9062-8.793zm-25.07 23.586c1.4805-1.5469 3.5234-2.4375 5.668-2.4648l49.977 38.438-7.6133 11.453-50.504-36.512c-0.75391-3.8242 0.14453-7.7891 2.4727-10.914zm-8.3828 28.844 53.457 38.641-0.003906 0.003906c1.9883 1.418 4.4648 1.9727 6.8711 1.5391 2.4023-0.4375 4.5273-1.8242 5.8945-3.8477l23.836-35.832c3.1602 3.3672 6.7031 6.3555 10.562 8.8945-4.2656 14.312-4.7656 35.977 14.598 48.883 1.9844 1.3555 4.4297 1.8633 6.7891 1.4023 2.3633-0.45703 4.4414-1.8398 5.7734-3.8398 1.332-2 1.8125-4.4531 1.3281-6.8086-0.48438-2.3555-1.8906-4.418-3.9062-5.7266-16.109-10.738-5.8398-32.934-5.4062-33.84 2.0977-4.3398 0.40625-9.5664-3.8398-11.848-15.977-8.418-22.645-19.57-15.828-33.309l43.566 34.773c6.0391 4.8242 9.7383 11.988 10.18 19.703l1.4219 25.098c1.6406 17.543 81.359 28.734 85.828 29.559 66.883 8.5859 88.609 24.691 89.645 25.457l19.52 13.637h-0.003906c1.5078 1.0586 3.3047 1.625 5.1484 1.625 8.3984 0.30859 12.434-11.688 5.1602-16.379l-13.723-9.5859c3.1523-8.2383 5.8164-15.797 8.4648-23.164 0.027344-0.03125 39.301-42.141 104.55-2.6172-24.809 46.32-61.312 114.21-73.906 135.57l-0.003906-0.003906c-2.8789 4.8633-7.5 8.4453-12.93 10.02-5.4258 1.5781-11.25 1.0234-16.281-1.543-53.828-27.527-134.72-74.879-178.14-100.65v-0.003906c-16.121-9.5625-34.516-14.605-53.258-14.609-45.895 1.3242-101.52-53.641-122.88-71.852-2.4688-2.3242-8.3086-7.8984-2.4844-19.34z"/>
</svg>
