<?xml version="1.0" encoding="UTF-8"?>
<svg width="700pt" height="700pt" version="1.1" viewBox="0 0 700 700" xmlns="http://www.w3.org/2000/svg">
 <path d="m382.93 533.07c-4.6641 4.707-10.117 8.5625-16.113 11.391-1.2812 0.5625-2.2812 1.6172-2.7812 2.9219-0.5 1.3047-0.46094 2.7578 0.11328 4.0352 0.57422 1.2734 1.6328 2.2695 2.9414 2.7578 1.3086 0.49219 2.7617 0.44141 4.0312-0.14063 7.1211-3.3281 13.602-7.8828 19.148-13.457 4.8828-4.8164-2.4023-12.289-7.3398-7.5078z"/>
 <path d="m236.79 285.36-7.2266 2.2383c-5.6953 1.6992-4.3008 10.359 1.5547 10.266 1.0391 0.14844 7.6719-2.2188 8.7852-2.4805 6.5508-2.1523 3.5117-11.957-3.1133-10.023z"/>
 <path d="m369.06 355.27c7.5-0.71094 6.6328-11.879-0.88672-11.426-7.4961 0.71484-6.6289 11.883 0.88672 11.426z"/>
 <path d="m16.977 524.83c13.824 12.207 49.723 46.273 78.867 44.766 9.0469 0 17.926 2.4375 25.707 7.0508 25.438 15.098 72.84 42.848 104.5 59.035 5.3203 2.7148 11.473 3.3008 17.207 1.6367 5.7383-1.6641 10.621-5.457 13.66-10.598 7.4688-12.664 29.188-53.059 43.746-80.242 6.9102 10.039 15.398 19.273 24.922 24.945h-0.003906c3.3008 15.699 12.434 29.562 25.562 38.789l30.055 49.656v-0.003906c0.96484 1.5508 2.6602 2.4961 4.4844 2.5 1.8242 0 3.5234-0.9375 4.4922-2.4844 0.37109-0.60547 37.363-60.988 83.984-108.98 1.8359-1.8906 1.9883-4.8516 0.35156-6.918-0.19922-0.25-18.227-23.172-29.25-48.301 8.6367-15.531 18.871-30.121 30.543-43.527 9.8008-11.086 25.633-39.645 30.75-77.688 2.332-1.1875 5.3203-2.3789 5.3203-2.3789 20.211 35.016 57.078 32.258 78.844 69.504h-0.003906c1.043 7.9492 1.3906 15.973 1.043 23.98-0.20312 3.793 0.29688 7.5938 1.4805 11.203l-13.406 17.457c-10.285-10.477-22.133-6.5312-28.805-0.24609-5.4727-13.684-25.922-16.711-33.418-2.1016-7.9609-7.7578-20.738-9.8242-28.082-0.76953h-0.003907c-3.3086-2.1992-7.3516-2.9961-11.25-2.2227-3.8945 0.77734-7.3281 3.0664-9.543 6.3633-10.258 16.73 19.309 51.66 25.418 58.172 3.3125 3.5117 7.9219 5.5039 12.75 5.5117 4.8281 0.011719 9.4453-1.9688 12.77-5.4648 3.2109-3.6016 7.4688-6.1016 12.18-7.1484-16.941 32.34 19.699 57.137 43.617 31.375h-0.003907c0.49219 4.7656-0.51562 9.5664-2.8789 13.734-2.25 4.2695-2.6406 9.2773-1.0898 13.848 1.5547 4.5664 4.9219 8.2969 9.3047 10.309 8.6953 4.0586 51.289 20.324 63.25 5.4375v0.003906c2.418-3.1523 3.4844-7.1367 2.9727-11.078-0.51562-3.9375-2.5703-7.5117-5.7148-9.9375 6.2344-9.8789 0.22266-21.195-9.7539-26.32 11.48-11.762 2.082-30.199-12.641-31.016 5.0391-9.9727 1.1484-22.98-10.484-26.988l8.7109-12.719c3.668 3.1133 8.4883 4.5273 13.258 3.8867 4.7695-0.64453 9.043-3.2812 11.758-7.2578l9.9414-14.785c6.5391-9.4805 5.0781-21.668-1.4531-30.762l25.621-37.414-0.003906 0.003907c3.4805-0.96484 6.5664-3.0039 8.8203-5.8242v-0.007813c6.3164-7.8633 5.8242-20.801-3.4453-27.09-12.238-9.2539-30.762 1.0195-29.422 16.289l-19.207 25.004c-20.625-33.07-51.184-79.043-84.375-118.7-3.0742-19.246-13.008-31.875-28.914-36.84 43.52-76.848 112.75-44.832 133.65-88.883 13.988-30.312-3.3086-47.27-14.879-63.129-8.7188-11.457-2.2031-26.691 8.6641-30.238 13.578-2.9414 24.867-8.3984 30.547-18.07 8-12.824 4.332-27.059 4.1719-27.66h-0.003907c-0.55078-2.0703-2.3086-3.5977-4.4375-3.8594-11.48 0.72266-0.875 17.539-39.438 18.133-5.582 0.37891-11.91 0.80469-19.18 1.6797-42.648 4.1758-41.738 47.602-35.148 66.723h-0.003906c3.5547 11.684 4.9141 23.922 4.0117 36.098-5.8906 17.262-18.727 19.602-24.465 19.738v0.003906c-5.6328-0.16016-11.238-0.86328-16.734-2.1016-33.18-7.6484-79.98 3.4805-103.21 56.449-8.4688 19-23.93 34.594-42.23 44.98-11.66 0.78516-18.488 3.5586-20.32 4.4023l0.003907 0.003906c-11.258 3.5391-22.289 7.75-33.043 12.609 0.66016-8.3203-0.42188-16.684-3.1719-24.562 17.668-5.8633 13.434-28.84 10.109-42.523 21.723 0.81641 39.367-10.938 41.621-29.426 33.918-6.0977 40.25-26.164 41.379-34.871 22.508-6.8477 30.172-38.059 25.875-53.188-0.30469-1.4297-1.1953-2.668-2.4531-3.4141-1.2578-0.74609-2.7734-0.93359-4.1758-0.51953-7.2812 2.1641-14.98 4.3086-23.023 6.4297 5.5039-12.16 1.4336-26.219 1.4336-26.219-0.46094-4.6562-3.375-7.9805-7.6914-6.5117-71.203 26.242-114.39 28.156-149.38 91.84-28.156-1.8555-73.633 5.1602-99.18 61.832-0.64453 1.4648-0.58984 3.1367 0.14453 4.5586 0.73438 1.418 2.0703 2.4297 3.6367 2.75l20.176 3.9688c-1.6875 13.203-2.0156 26.543-0.98047 39.812 0.28516 3.6992-0.62891 7.3906-2.6055 10.527l-9.8086 16.051c-0.85156 1.3281-1.0664 2.9609-0.59375 4.4609 0.47656 1.5 1.5938 2.7109 3.0547 3.3047l16.289 6.4414 9.8281 38.902c0.36328 1.4023 1.2891 2.5938 2.5625 3.2969 1.2695 0.69922 2.7734 0.84375 4.1562 0.40234 14.773-3.9492 17.879-10.219 38.477-2.7422-12.266 20.332-18.473 44.695-19.516 68.059l-0.003906 0.003906c-11.574 19.289-14.926 42.418-9.3008 64.203 1.1953 4.7031-0.76953 9.9102-2.6328 13.453-7.793 14.848-10.742 25.199-15.918 38.996-7.6758-3.8242-23.477-9.8672-51.309-13.344-8.4883-1.0625-29.484-5.0391-41.055-10.426-0.46875-11.684-0.32812-22.859-10.531-30.738l-29.887-23.855c-5.6992-3.3984-8.2617 1.0078-11.965 8.2109-6.2617-4.9258-12.273-9.3594-17.938-13.219-12.355-8.4883-21.328-0.89453-24.539 8.9922-9.332 1.4219-14.422 10.234-12.977 19.832-7.1406 10.227-6.7461 20.227 1.1992 27.699zm622.62-387.94c0.36719 0.52734 0.72656 1.0312 1.0859 1.5781 6.7773 10.012 11.316 21.055 3.25 37.504-5.5547 11.363-13.918 15.809-26.48 19.609 15.375-17.32 18.762-41.609 5.7148-61.836-2.0664-3.2617-3.7578-6.7461-5.0508-10.387 0 0 11.043-1.0586 21.48 13.531zm-45.883-15.754c-17.598-75.707 51.852-42.875 77.586-63.242-7.7773 25.262-40.738 12.008-60.117 39.965-6.8516 10.246-8.0234 24.008 3.0664 41.441 17.41 25.918-2.6094 58.672-30.637 65.762 10.168-16.297 21.508-45.207 10.102-83.926zm-130.23 425.71c-14.301 15.168-27.809 31.066-40.465 47.629-0.085938-13.465-4.2969-22.086-4.5547-22.602-3.1875-6.0859-12.32-1.5273-9.3984 4.6836 0.29297 0.60156 7.0703 14.879 0.84766 35.449-10.922 15.051-19.32 27.703-24.133 35.168l-26.234-43.344c-13.879-10.57-20.551-21.84-22.75-30.59h-0.003906c5.0781-1.3906 9.6602-4.1836 13.219-8.0625 3.3398 9.7891 9.6523 18.293 18.059 24.32 5.6289 3.9375 11.691-4.3594 6.1445-8.5117-7.543-5.4336-12.934-13.348-15.227-22.352-3.9219-14.434-15.746-11.148-17.922-29.168-0.94531-6.8125-11.156-5.5898-10.422 1.2891 0.59766 4.9531 3.2539 17.301 14.152 24.531-6.1406 7.4219-10.957 7.9883-12.484 7.9453-4.4492-2.7969-8.5859-6.0703-12.332-9.7539-5.5781-9.6055 0.89453-19.996 1.2148-20.504 3.7148-5.7539-5.0039-11.457-8.7891-5.7383l0.003906-0.003906c-2.1602 3.5312-3.6953 7.4062-4.5352 11.457-5.1523-7.9297-9.3594-16.434-12.535-25.34 9.0469 2.6914 18.57 3.3945 27.914 2.0586l-0.042968 0.015625c11.613-1.1328 22.918-4.3672 33.371-9.5508 7.6602 0.21875 15.188 2.0703 22.078 5.4297 6.2617 2.7773 10.633-6.543 4.375-9.5469-3.9766-1.8359-8.1055-3.3164-12.344-4.418 13.406-9.8867 26.074-25.148 32.449-48.68v-0.003906c3.0664-9.7852 6.7539-19.367 11.039-28.688 5.2461 0.25391 13.266 0.55859 17.047-0.15234 2.2422 18.148 2.0508 36.516-0.58203 54.613-3.4414 24.082 26.547 62.84 32.84 72.418zm-175.25-71.688c33.531 13.129 65.344 2.5 91.254-29.016-17.719 77.508-112.22 69.793-91.238 29.023zm223.79 71.094c-1.3203 1.4102-3.168 2.2109-5.1016 2.2148s-3.7812-0.79688-5.1055-2.2031c-5.9688-6.4023-20.344-23.293-24.941-41.82-0.29297-1.168-0.074219-2.4023 0.59766-3.3984 0.95312-1.4102 2.6211-2.1562 4.3086-1.9258 1.6836 0.23438 3.0859 1.4102 3.6172 3.0234 3.2461 10.812 10.641 26.039 20.82 33.336 1.8984 1.3516 4.4609 1.2969 6.3008-0.13672 0.77734-0.60547 17.891-13.613 38.562-5.0234-3.6797 1.1562-7.125 2.9688-10.164 5.3438-10.789-1.4688-21.609 2.4961-28.895 10.59zm44.746 31.078c-16.41 4.082-24.332-15.039-14.242-28.371 6.5664-9.1523 17.969-12.246 25.418-6.9023 13.027 9.8008 3.2305 32.352-11.176 35.277zm75.383 30.102c1.7031-0.015625 3.2617 0.94141 4.0234 2.4609s0.58984 3.3398-0.4375 4.6953c-0.73047 0.95312-1.832 1.5547-3.0312 1.6523-19.016 1.5859-39.629-6.625-47.602-10.219-12.32-6.9883 8.9453-16.496-2.4414-40.344 1.293-3.6445 1.918-7.4961 1.8359-11.363 14.672 16.816 7.8516 37.125 7.5273 38.047-0.78516 2.207-0.019531 4.668 1.8828 6.0312 10.18 7.2969 26.977 9.4297 38.242 9.0352zm-52.52-68.32c-3.3477-4.6875-8.2695-8.0078-13.867-9.3633l33.039-43.008c1.9883 2.5312 7.8398 7.1406 10.297 9.3438zm-33.246-219.02c43.969 53.984 82.48 117.5 97.48 143.19 1.3867 2.3945 2.0781 5.1367 1.9883 7.9062-0.089844 2.7695-0.95313 5.457-2.4922 7.7617l-9.9414 14.785c-1.0195 1.5-2.6328 2.5-4.4297 2.7461-1.8008 0.24219-3.6211-0.28906-5.0039-1.4609l-14.953-12.82h-0.003906c-4.6562-4-7.1719-9.9453-6.8047-16.07 0.41016-9.0273-0.015625-18.07-1.2734-27.02-23.25-45.828-68.965-40.109-87.141-86.156-3.1484-6.0781-12.398-1.5586-9.3906 4.7031l2.5391 5.0703c-7.9336 3.168-22.133 11.363-47.188 31.559-11.629 9.3789-27.566 14-40.488 14.926 17.742-35.375 51.043-83.5 104.56-95.48 8.2344-1.9609 17.117-0.57422 22.543 6.3633zm-148.76-12.133v0.003906c-4.9688 4.2578-9.668 8.8203-14.07 13.664-4.5234 5.0977 3.0195 12.152 7.7656 7.0703 14.676-16.125 31.469-27.82 49.906-34.766 4.5039-4.8281 84.367-40.312 95.949 8.7383-28.375-4.6094-110.95 30.977-139.56 95.82-31.648 61.586-69.469 87.195-114.05 62.441-1.0703-1.5-22.738-32.371-6.6992-48.234 11.301-10.859 15.66 4.0469 16.773 8.5391 3.0664 17.934 27.785 24.797 39.43 10.555 9.8633-10.922 16.508-37.316 22.805-48.566 2.8789-6.25-6.3477-10.738-9.4609-4.5586-3.6406 7.5586-7.7383 17.492-12.18 29.527l-0.003906 0.003907c-2.0273 6.0625-5.1055 11.719-9.0898 16.715-5.5781 6.9102-17.898 4.5859-20.598-3.8711h-0.003907c-1.457-4.3672-1.957-9-1.4609-13.578 15.797-42.941 35.348-82.082 94.551-99.5zm-10.73-171.78c24.664-5.2852 47.156-10.84 66.965-16.539 0.46484 9.2227-1.2695 27.141-19.957 35.449l-0.003907 0.007812c-1.957 0.5-3.9805 0.70312-6 0.60547-32.898-1.6211-54.641 8.9102-55.551 9.3594-4.9531 2.3438-3.0703 10.078 2.332 9.957 3.9727-0.30469 19.461-10.09 52.145-8.8477-1.6641 7.0195-8.4961 20.07-36.051 23.887-14.141 0.65234-21.898 2.0352-25.922 3.0898-5.8906 1.4844-4.6758 10.406 1.3242 10.332l-0.003906-0.003907c6.3125-1.3242 12.715-2.1914 19.152-2.5859-4.0586 14.566-18.027 18.875-35.969 17.641 3.0781-7.2734 3.7461-16.934-5.2578-24.742h-0.003906c-4.4375-3.3672-10.117-4.6445-15.57-3.5078-5.2422 0.35156-19.852 13.367-10.961 18.816 1.2383 0.63281 2.6797 0.74609 4.0039 0.3125 1.3242-0.42969 2.4258-1.3711 3.0547-2.6094 2.9844-6.6562 8.4297-7.8828 12.805-4.8984 14.422 14.129-19.727 38.676-43.605 22.066v-0.003906c-3.418-2.2422-5.8164-5.7383-6.6797-9.7305-0.86328-3.9961-0.125-8.168 2.0586-11.625 12.363-19.629 41.488-54.375 97.695-66.422zm-195.43 97.34c26.922-52.566 72.949-52.68 97.195-48.387-3.3242 4.2969-6.0977 8.332-8.3398 11.898-11.922 19.074 3.7266 39.777 23.941 42.348 0 0 19.812 4.3555 17.422 19.738zm35.465 124.43-9.1016-36.031v-0.003906c-0.41406-1.6367-1.5898-2.9766-3.1602-3.5977l-12.988-5.1367c4.9102-8.0469 12.164-17.734 10.762-27.73v0.003906c-0.95703-12.316-0.67578-24.695 0.83984-36.953l36.977 7.2695c1.3984 33.031 27.98 43.422 42.125 44.27h0.003907c1.7109 0.10547 3.3672-0.63672 4.4297-1.9844 3.1211-3.9453 7.6445-8.3164 11.488-6.75 7.4414 3.3594 0.46484 20.336-3.3711 22.453-10.531 8.4414-18.035 0.019531-20.844 8.25-1.0898 3.7891-1.5273 11.059-5.5156 13.129-14.715 9.5391-33.285 16.645-51.645 22.812zm35.602-2.3711c7.5352-3.3203 14.805-7.2109 21.75-11.629 5.3789-3.2695 8.0547-9.3281 9.0625-15.41 3.2188-0.14062 6.4023-0.73047 9.4531-1.7617 1.707 15.68 8.4961 24.297 13.328 28.543-7.2852 11.129-13.34 23.02-18.059 35.461-9.5391-22.035-23.465-31.43-35.527-35.203zm-220.31 119.73c1.457-0.61328 3.8555 0.78125 5.1523 1.6641 6.7891 4.6211 14.125 10.125 21.812 16.352l-0.003907-0.003906c0.054688 0.81641 0.1875 1.625 0.39844 2.4141l-3.6953 5.5547-27.109-20.852c0.84766-2.4102 2.1133-4.5742 3.4453-5.1289zm-14.625 13.758c0.86328-0.90234 2.0547-1.4219 3.3086-1.4375l29.152 22.422-4.4414 6.6797-29.461-21.297c-0.44141-2.2305 0.082031-4.543 1.4414-6.3672zm-4.8906 16.828 31.184 22.539c1.1602 0.82812 2.6055 1.1523 4.0078 0.89844s2.6406-1.0625 3.4375-2.2422l13.906-20.902c1.8438 1.9648 3.9102 3.707 6.1602 5.1875-2.4883 8.3477-2.7773 20.984 8.5156 28.516 1.1562 0.79297 2.5859 1.0859 3.9609 0.81641 1.375-0.26562 2.5898-1.0742 3.3672-2.2383 0.77734-1.168 1.0547-2.5977 0.77344-3.9727-0.28125-1.3711-1.1016-2.5742-2.2773-3.3398-9.3984-6.2656-3.4062-19.211-3.1523-19.738l-0.003906-0.003906c1.2266-2.5312 0.23828-5.5781-2.2383-6.9102-9.3203-4.9102-13.211-11.418-9.2344-19.43l25.414 20.285c3.5234 2.8125 5.6836 6.9922 5.9375 11.496l0.82813 14.641c0.95703 10.234 47.461 16.762 50.066 17.242 39.016 5.0078 51.688 14.402 52.293 14.852l11.387 7.9531v-0.003906c0.87891 0.61719 1.9297 0.94922 3.0039 0.94922 4.8984 0.17969 7.2539-6.8164 3.0117-9.5547l-8.0039-5.5898c1.8398-4.8047 3.3945-9.2148 4.9375-13.512 0.015625-0.019532 22.926-24.582 60.988-1.5273-14.473 27.02-35.766 66.625-43.113 79.082l-0.003906-0.003906c-3.4844 5.8906-10.945 8.0547-17.039 4.9453-31.398-16.055-78.586-43.68-103.92-58.715-9.4023-5.5781-20.133-8.5234-31.066-8.5234-26.773 0.76953-59.219-31.293-71.68-41.914-1.4414-1.3555-4.8477-4.6055-1.4492-11.281z"/>
</svg>
